Coordinates
version=1
nRows=10
nColumns=40
inDegrees=yes

Units are S.I. units (second, meters, Newtons, ...)
Angles are in degrees.

endheader
time	pelvis_tilt	pelvis_list	pelvis_rotation	pelvis_tx	pelvis_ty	pelvis_tz	hip_flexion_r	hip_adduction_r	hip_rotation_r	knee_angle_r	knee_angle_r_beta	ankle_angle_r	subtalar_angle_r	mtp_angle_r	hip_flexion_l	hip_adduction_l	hip_rotation_l	knee_angle_l	knee_angle_l_beta	ankle_angle_l	subtalar_angle_l	mtp_angle_l	lumbar_extension	lumbar_bending	lumbar_rotation	arm_flex_r	arm_add_r	arm_rot_r	elbow_flex_r	pro_sup_r	wrist_flex_r	wrist_dev_r	arm_flex_l	arm_add_l	arm_rot_l	elbow_flex_l	pro_sup_l	wrist_flex_l	wrist_dev_l
     17.77500000	     -3.60970300	     -3.94086655	     -4.75546438	      1.12282005	      0.93732459	      0.41450341	     34.72383479	     -4.38535466	     -4.39339935	     62.31121226	     62.31121226	      0.52294938	    -12.71637367	     -1.10345192	      7.62493644	     -2.94465604	     -9.37325701	     16.05775487	     16.05775487	     13.54335718	    -11.35999191	     -0.38933474	     -9.88735546	      6.57279761	      2.84392290	     -1.62388116	    -11.49947361	     -8.00417003	     27.17405192	     46.89275442	      0.00000000	      0.00000000	     22.06303018	    -15.81353736	      3.22487372	     47.18023949	     46.33517214	      0.00000000	      0.00000000
     17.78657143	     -3.58094758	     -3.97733777	     -4.89803434	      1.12193472	      0.93717057	      0.41447344	     35.30475701	     -4.12301017	     -4.55149171	     59.44150625	     59.44150625	      0.47549433	    -12.42205378	     -1.38882473	      6.57614557	     -2.87688108	     -9.60444047	     15.28254374	     15.28254374	     13.58447161	    -11.04465757	     -1.15240483	    -10.01828692	      6.69541997	      2.47862626	     -2.27853105	    -11.28804616	     -9.36842334	     23.25856340	     47.15692203	      0.00000000	      0.00000000	     22.92740365	    -16.71722646	      2.75415265	     50.28126700	     46.42854912	      0.00000000	      0.00000000
     17.79814286	     -3.49333360	     -4.04057068	     -4.99065486	      1.12108110	      0.93694075	      0.41446040	     35.62121922	     -3.85355407	     -4.80673809	     56.22130565	     56.22130565	      0.63726752	    -11.87510594	     -1.17456312	      5.51556567	     -2.83336854	     -9.75946261	     14.63226659	     14.63226659	     13.94044488	    -10.65886060	     -1.29006374	    -10.23867236	      6.86076697	      2.71608244	     -4.22223714	    -11.36902492	     -9.56112047	     22.04035328	     47.20986177	      0.00000000	      0.00000000	     24.67684903	    -16.96847869	      2.36428426	     51.91655324	     46.49958496	      0.00000000	      0.00000000
     17.80971429	     -3.60061285	     -4.05094361	     -5.01314047	      1.12018800	      0.93618486	      0.41446765	     35.98862813	     -3.66413619	     -5.19013816	     52.72461695	     52.72461695	      0.81869694	    -11.24870055	     -0.91671566	      4.79059664	     -2.77357560	     -9.87429958	     14.16968346	     14.16968346	     14.28412962	    -10.30092380	     -1.49134300	    -10.15490452	      6.96799688	      2.52106204	     -5.99778103	    -11.38756434	     -9.69539344	     21.11489338	     47.24717677	      0.00000000	      0.00000000	     26.22895371	    -17.51989194	      2.00559735	     53.28286786	     46.56067641	      0.00000000	      0.00000000
     17.82128571	     -3.51818196	     -4.03060948	     -5.10156540	      1.11952448	      0.93556048	      0.41467722	     35.86546230	     -3.43261446	     -5.52756282	     48.72711396	     48.72711396	      0.53534568	    -10.64871200	     -2.14665909	      3.75573487	     -2.72198615	    -10.46757905	     13.56835570	     13.56835570	     14.48479126	     -9.35652138	     -2.46478608	    -10.40487467	      6.94700211	      2.29585438	     -7.20809641	    -11.34646598	    -11.31532274	     19.27269848	     47.51297669	      0.00000000	      0.00000000	     26.51187570	    -18.30094031	      1.13386022	     57.97844909	     46.71472441	      0.00000000	      0.00000000
     17.83285714	     -3.58781507	     -4.03518040	     -5.06108757	      1.11885758	      0.93459539	      0.41480665	     35.73779109	     -3.22238567	     -6.09581586	     44.57087893	     44.57087893	      0.73297082	     -9.62630303	     -1.75953228	      2.99213692	     -2.66342757	    -10.54131483	     13.14009504	     13.14009504	     14.85516265	     -8.97619699	     -2.65560130	    -10.33792873	      7.03355098	      2.19202221	     -8.95704333	    -11.42234484	    -11.49431742	     18.55853155	     47.54897186	      0.00000000	      0.00000000	     27.99459073	    -18.59482796	      0.77964320	     59.32567939	     46.77427746	      0.00000000	      0.00000000
     17.84442857	     -3.49910757	     -3.93021920	     -5.08255314	      1.11846811	      0.93364692	      0.41508169	     35.25411240	     -3.09547203	     -6.70721009	     40.21300172	     40.21300172	      0.90672291	     -8.18851558	     -1.56714376	      1.97948107	     -2.50385306	    -10.96890922	     12.60886900	     12.60886900	     15.24063339	     -8.11553659	     -3.05121040	    -10.51626165	      6.92426076	      2.49286328	    -10.91135793	    -11.43018455	    -11.92921517	     18.03637707	     47.60613964	      0.00000000	      0.00000000	     29.27927338	    -18.67272206	      0.31568460	     61.92481068	     46.86187908	      0.00000000	      0.00000000
     17.85600000	     -3.56232649	     -3.91872500	     -5.01610680	      1.11819633	      0.93240562	      0.41545941	     34.66586066	     -2.81697395	     -7.48803091	     35.60317007	     35.60317007	      0.95656375	     -6.75460647	     -0.99026934	      1.22666963	     -2.47272416	    -11.14613270	     12.26641168	     12.26641168	     15.65298257	     -7.54453668	     -3.38314662	    -10.39999399	      6.94809923	      2.32122675	    -12.61587996	    -11.50305735	    -12.24510113	     17.74638726	     47.63855854	      0.00000000	      0.00000000	     30.34549656	    -19.00681236	     -0.05197691	     63.76501041	     46.92691137	      0.00000000	      0.00000000
     17.86757143	     -3.44118986	     -3.78640839	     -4.98746804	      1.11827870	      0.93111756	      0.41596936	     33.77627549	     -2.65909097	     -8.41355288	     31.10544765	     31.10544765	      1.09311105	     -4.83234121	     -0.30112894	      0.21481574	     -2.31993075	    -11.63826114	     11.86076109	     11.86076109	     16.09450457	     -6.56638660	     -3.83925867	    -10.53857248	      6.78242896	      2.39583403	    -14.48278016	    -11.48929784	    -12.81030053	     17.87341502	     47.67696273	      0.00000000	      0.00000000	     31.18063287	    -19.24327354	     -0.54972529	     66.72874169	     47.02161726	      0.00000000	      0.00000000
     17.87914286	     -3.47373149	     -3.64828298	     -4.93169267	      1.11857505	      0.92943030	      0.41664748	     32.97705010	     -2.42984698	     -9.37494140	     26.84778418	     26.84778418	      1.37166496	     -2.83522304	      1.37293418	     -0.54655283	     -2.23002711	    -12.21563159	     11.65815228	     11.65815228	     16.67886018	     -5.33422325	     -4.32258518	    -10.46326091	      6.61981713	      1.88692946	    -16.25910132	    -11.47453804	    -14.18879679	     19.16310377	     47.74329633	      0.00000000	      0.00000000	     31.13452183	    -19.93672569	     -1.45189952	     70.69416157	     47.17341401	      0.00000000	      0.00000000
